<svg width="62" height="63" viewBox="0 0 62 63" fill="none" xmlns="http://www.w3.org/2000/svg">
<path d="M51.245 33.6589C51.245 46.6047 42.2774 53.0776 31.6187 56.8319C31.0605 57.0231 30.4542 57.0139 29.902 56.806C19.2177 53.0776 10.25 46.6047 10.25 33.6589V15.5348C10.25 14.8481 10.5199 14.1896 11.0004 13.704C11.481 13.2184 12.1327 12.9456 12.8122 12.9456C17.9366 12.9456 24.342 9.83866 28.8003 5.90313C29.3431 5.43449 30.0336 5.177 30.7475 5.177C31.4615 5.177 32.152 5.43449 32.6948 5.90313C37.1786 9.86455 43.5585 12.9456 48.6829 12.9456C49.3624 12.9456 50.0141 13.2184 50.4946 13.704C50.9751 14.1896 51.245 14.8481 51.245 15.5348V33.6589Z" stroke="#FFB800" stroke-width="5.17832" stroke-linecap="round" stroke-linejoin="round"/>
</svg>
