<svg width="62" height="63" viewBox="0 0 62 63" fill="none" xmlns="http://www.w3.org/2000/svg">
<path d="M39.6535 33.3743L43.5352 55.4495C43.5787 55.7094 43.5426 55.9766 43.4318 56.2152C43.3209 56.4539 43.1406 56.6526 42.915 56.7849C42.6893 56.9172 42.4291 56.9768 42.1691 56.9556C41.909 56.9344 41.6616 56.8335 41.4598 56.6664L32.2872 49.7093C31.8444 49.375 31.3065 49.1944 30.7537 49.1944C30.201 49.1944 29.6631 49.375 29.2203 49.7093L20.0322 56.6638C19.8307 56.8306 19.5835 56.9314 19.3238 56.9526C19.0641 56.9738 18.8041 56.9145 18.5786 56.7825C18.3531 56.6506 18.1728 56.4523 18.0617 56.2141C17.9506 55.9759 17.9141 55.7092 17.9569 55.4495L21.836 33.3743" stroke="#FFB800" stroke-width="5.17832" stroke-linecap="round" stroke-linejoin="round"/>
<path d="M30.7462 36.2482C39.2365 36.2482 46.1193 29.293 46.1193 20.7132C46.1193 12.1335 39.2365 5.17828 30.7462 5.17828C22.2558 5.17828 15.373 12.1335 15.373 20.7132C15.373 29.293 22.2558 36.2482 30.7462 36.2482Z" stroke="#FFB800" stroke-width="5.17832" stroke-linecap="round" stroke-linejoin="round"/>
</svg>
