<svg width="62" height="63" viewBox="0 0 62 63" fill="none" xmlns="http://www.w3.org/2000/svg">
<path d="M10.2487 36.2483C9.76381 36.25 9.28843 36.1126 8.87777 35.8521C8.46711 35.5916 8.13802 35.2187 7.92873 34.7768C7.71944 34.3348 7.63854 33.8419 7.69544 33.3553C7.75234 32.8687 7.94469 32.4085 8.25015 32.028L33.6158 5.61853C33.8061 5.39659 34.0654 5.24661 34.3511 5.19322C34.6369 5.13982 34.9321 5.18617 35.1883 5.32467C35.4446 5.46317 35.6466 5.68558 35.7613 5.9554C35.8759 6.22522 35.8964 6.52642 35.8193 6.80955L30.8999 22.3963C30.7549 22.7886 30.7061 23.2106 30.758 23.6262C30.8098 24.0417 30.9605 24.4383 31.1974 24.782C31.4342 25.1257 31.75 25.4062 32.1177 25.5995C32.4853 25.7928 32.8939 25.893 33.3084 25.8917H51.2437C51.7286 25.89 52.2039 26.0274 52.6146 26.2879C53.0253 26.5483 53.3544 26.9212 53.5636 27.3632C53.7729 27.8052 53.8538 28.2981 53.7969 28.7846C53.74 29.2712 53.5477 29.7315 53.2422 30.112L27.8765 56.5214C27.6863 56.7434 27.427 56.8933 27.1412 56.9467C26.8555 57.0001 26.5603 56.9538 26.304 56.8153C26.0478 56.6768 25.8458 56.4544 25.7311 56.1846C25.6165 55.9147 25.596 55.6136 25.6731 55.3304L30.5925 39.7437C30.7375 39.3514 30.7862 38.9293 30.7344 38.5138C30.6826 38.0983 30.5318 37.7017 30.295 37.358C30.0582 37.0143 29.7424 36.7337 29.3747 36.5405C29.007 36.3472 28.5984 36.2469 28.184 36.2483H10.2487Z" stroke="#FFB800" stroke-width="5.17832" stroke-linecap="round" stroke-linejoin="round"/>
</svg>
